<svg width="461" height="460" viewBox="0 0 461 460" fill="none" xmlns="http://www.w3.org/2000/svg">
<path d="M172.241 405.567C171.475 405.567 172.241 405.567 172.241 405.567C171.475 405.567 171.475 405.567 172.241 405.567L161.508 351.9L124.708 343.467L149.241 324.3L146.175 295.933H197.541L192.941 253L228.975 232.3L226.675 218.5L245.841 200.867L238.175 175.567L219.008 170.2L186.041 138.767L440.575 69L370.808 323.533L310.241 262.967L172.241 405.567ZM124.708 342.7L161.508 351.133L172.241 404.8L310.241 262.2L370.808 322.767L440.575 69L186.041 138.767L218.241 170.2L237.408 175.567L245.841 199.333L226.675 216.967L228.975 231.533L192.941 253L198.308 295.933H146.941L149.241 324.3L124.708 342.7Z" fill="#9DA4A7"/>
<path d="M168.405 389.467L160.739 351.9L148.472 324.3L197.539 295.933L215.172 259.9L192.172 253L219.005 251.467L228.205 232.3L240.472 226.167L225.905 218.5L242.772 216.967L245.839 200.1L253.505 187.833L238.172 175.567L230.505 157.167L219.772 170.2L228.205 151.8L186.805 138.767L248.139 136.467L259.639 118.833L272.672 123.433L304.105 106.567L350.105 105.8L386.139 84.3333L389.972 96.6L399.939 94.3L440.572 69L416.039 92.7667L431.372 102.733L417.572 115L419.105 151.8L402.239 185.533L390.739 197.8L400.705 220.033L382.305 251.467L386.139 272.167L366.972 278.3L372.339 322.767L350.872 281.367L333.239 284.433L328.639 256.067L312.539 262.967L305.639 259.133L297.972 268.333L300.272 275.233L278.805 291.333L238.172 315.1L248.905 327.367L208.272 357.267L191.405 387.167L183.739 377.967L168.405 389.467ZM161.505 352.667L168.405 389.467L181.439 378.733L161.505 352.667ZM182.205 377.967L189.105 387.167L205.972 358.033L182.205 377.967ZM161.505 351.9L182.205 377.967L206.739 358.033L161.505 351.9ZM161.505 351.9L205.972 358.033L176.839 340.4L161.505 351.9ZM177.605 340.4L206.739 357.267L202.139 322.767L177.605 340.4ZM235.872 315.867L207.505 357.267L247.372 328.133L235.872 315.867ZM215.939 312.8L207.505 356.5L236.639 315.1L215.939 312.8ZM202.139 322.767L206.739 357.267L215.172 313.567L202.139 322.767ZM149.239 324.3L161.505 351.133L170.705 336.567L149.239 324.3ZM170.705 337.333L161.505 351.133L176.072 340.4L170.705 337.333ZM171.472 337.333L176.839 340.4L201.372 322.767L200.605 315.867L182.972 318.933L171.472 337.333ZM149.239 324.3L170.705 336.567L182.972 318.167L149.239 324.3ZM197.539 295.933L150.005 323.533L182.972 318.167L197.539 295.933ZM350.105 282.133L370.805 322.767L365.439 279.067L350.105 282.133ZM201.372 315.867L202.139 322.767L215.172 313.567L201.372 315.867ZM198.305 295.933L183.739 318.167L200.605 315.1L198.305 295.933ZM198.305 295.933L200.605 315.1L214.405 312.8L198.305 295.933ZM215.939 312.8L235.105 315.1L216.705 305.9L215.939 312.8ZM216.705 305.133L235.872 315.1V294.4L219.005 295.167L216.705 305.133ZM235.872 293.633V314.333L275.739 291.333L235.872 293.633ZM199.072 295.933L215.172 312.033L216.705 305.133L199.072 295.933ZM199.072 295.933L216.705 305.133L218.239 295.167L199.072 295.933ZM221.305 276.767L198.305 295.167L218.239 294.4L221.305 276.767ZM215.939 259.9L199.072 295.167L222.072 276.767L224.372 262.2L215.939 259.9ZM222.072 276.767L219.005 294.4L235.872 293.633V265.267L222.072 276.767ZM235.872 265.267V293.633L276.505 291.333L235.872 265.267ZM260.405 259.133L277.272 291.333L288.772 251.467L260.405 259.133ZM235.872 265.267L276.505 291.333L259.639 259.133L235.872 265.267ZM289.539 251.467L277.272 291.333L294.905 269.1L289.539 251.467ZM295.672 269.1L278.039 290.567L297.972 275.233L295.672 269.1ZM347.805 269.867L332.472 284.433L349.339 281.367L347.805 269.867ZM344.739 249.167L332.472 283.667L347.805 269.1L344.739 249.167ZM327.105 256.067L331.705 283.667L343.972 248.4L327.105 256.067ZM347.805 269.867L349.339 281.367L364.672 278.3L353.939 262.967L347.805 269.867ZM373.105 266.033L365.439 279.067L384.605 272.933L373.105 266.033ZM354.705 262.967L365.439 278.3L367.739 262.2L360.072 257.6L354.705 262.967ZM368.505 262.967L366.205 278.3L373.105 266.033L368.505 262.967ZM224.372 262.2L222.072 276L235.872 265.267L224.372 262.2ZM373.872 265.267L385.372 272.167L377.705 259.133L373.872 265.267ZM376.939 259.133L384.605 271.4L380.772 252.233L376.939 259.133ZM344.739 249.167L347.805 269.1L354.705 262.967L344.739 249.167ZM289.539 251.467L295.672 268.333L303.339 259.133L289.539 251.467ZM368.505 262.2L373.105 265.267L376.939 259.133L370.805 249.167L368.505 262.2ZM224.372 261.433L235.872 264.5L238.172 249.933L225.905 250.7L224.372 261.433ZM238.172 249.933L235.872 264.5L259.639 258.367L255.039 249.167L238.172 249.933ZM345.505 249.167L354.705 262.967L360.072 257.6L345.505 249.167ZM303.339 259.133L310.239 262.967L322.505 235.367L303.339 259.133ZM323.272 234.6L311.005 262.2L327.105 255.3L323.272 234.6ZM360.839 257.6L368.505 262.2L370.805 248.4L360.839 257.6ZM215.939 259.133L223.605 261.433L225.139 250.7H219.005L215.939 259.133ZM193.705 253L215.939 259.133L219.772 251.467L193.705 253ZM289.539 250.7L303.339 258.367L322.505 234.6L289.539 250.7ZM370.805 248.4L376.939 259.133L380.772 252.233L378.472 240.733L370.805 248.4ZM255.039 249.167L259.639 258.367L288.772 250.7L269.605 240.733L255.039 249.167ZM344.739 248.4L360.072 257.6L370.039 248.4L355.472 236.9L344.739 248.4ZM323.272 234.6L327.105 256.067L343.972 249.167L323.272 234.6ZM379.239 239.967L381.539 251.467L399.172 221.567L379.239 239.967ZM228.972 233.067L220.539 250.7H225.905L228.972 233.067ZM277.272 236.9L288.772 250.7L291.839 228.467L277.272 236.9ZM228.972 232.3L225.905 250.7L238.172 249.933L239.705 239.2L228.972 232.3ZM311.005 226.167L289.539 250.7L322.505 234.6L311.005 226.167ZM270.372 240.733L288.772 250.7L277.272 236.9L270.372 240.733ZM297.205 225.4L289.539 249.933L311.005 225.4L304.872 221.567L297.205 225.4ZM240.472 239.2L238.172 249.933L254.272 249.167L240.472 239.2ZM292.605 228.467L289.539 249.167L296.439 226.167L292.605 228.467ZM240.472 239.2L255.039 248.4L251.972 230.767L242.772 226.167L240.472 239.2ZM261.172 236.133L255.805 248.4L270.372 240.733L261.172 236.133ZM323.272 234.6L344.739 249.167L347.805 230.767L337.839 222.333L323.272 234.6ZM251.972 231.533L255.039 248.4L260.405 236.133L251.972 231.533ZM347.805 230L344.739 248.4L354.705 236.133L347.805 230ZM355.472 236.133L370.039 247.633L373.872 214.667L355.472 236.133ZM374.639 215.433L370.805 247.633L379.239 239.967L374.639 215.433ZM261.172 235.367L270.372 239.967L277.272 236.133L266.539 223.1L261.172 235.367ZM374.639 214.667L379.239 239.967L399.172 220.8L374.639 214.667ZM229.739 232.3L240.472 239.2L242.772 226.167L229.739 232.3ZM266.539 223.867L277.272 236.9L292.605 228.467L294.905 215.433L292.605 213.9L270.372 214.667L266.539 223.867ZM347.805 230L355.472 236.133L373.872 214.667L350.872 209.3L347.805 230ZM251.972 230.767L260.405 235.367L265.772 223.1L260.405 216.2L250.439 220.8L251.972 230.767ZM311.005 226.167L322.505 234.6L323.272 212.367L311.005 226.167ZM324.039 210.833L323.272 233.833L337.072 221.567L324.039 210.833ZM242.772 225.4L251.972 230L250.439 221.567L242.772 225.4ZM337.839 221.567L347.805 230L350.872 209.3L337.839 221.567ZM294.905 214.667L292.605 227.7L297.205 225.4L299.505 217.733L294.905 214.667ZM304.872 221.567L311.005 225.4L323.272 210.833L304.872 221.567ZM227.439 217.733L242.005 225.4L243.539 216.967L227.439 217.733ZM299.505 218.5L297.205 225.4L304.105 221.567L299.505 218.5ZM244.305 216.967L242.772 225.4L250.439 221.567L249.672 216.2L244.305 216.967ZM261.172 216.2L266.539 223.1L270.372 214.667L263.472 215.433L261.172 216.2ZM300.272 217.733L304.872 220.8L323.272 210.833L301.805 212.367L300.272 217.733ZM249.672 216.2L250.439 221.567L260.405 216.967L259.639 216.2H249.672ZM324.805 210.833L337.072 220.8L350.105 208.533L324.805 210.833ZM374.639 213.9L399.172 219.267L389.205 197.8L374.639 213.9ZM294.905 214.667L299.505 217.733L301.039 212.367L294.905 213.133V214.667ZM246.605 200.867L244.305 216.2H249.672L246.605 200.867ZM260.405 215.433H262.705H260.405ZM246.605 200.1L248.905 215.433L258.872 214.667L246.605 200.1ZM246.605 200.1L259.639 215.433H263.472L272.672 210.833L276.505 202.4L269.605 197.8L246.605 200.1ZM271.905 210.833L264.239 214.667L270.372 213.9L271.905 210.833ZM272.672 210.833L271.139 214.667L292.605 213.133L282.639 206.233L272.672 210.833ZM292.605 213.133L294.139 214.667V213.133H292.605ZM351.639 208.533L374.639 213.9L389.205 197.8L351.639 208.533ZM282.639 206.233L292.605 213.133H294.905L297.205 199.333L282.639 206.233ZM297.205 198.567L294.905 212.367L301.039 211.6L307.172 193.2L297.205 198.567ZM307.939 193.967L301.805 212.367L324.039 210.833L307.939 193.967ZM357.005 180.167L324.805 210.067L350.872 207.767L357.005 180.167ZM307.939 193.2L324.039 210.067L356.239 179.4L307.939 193.2ZM276.505 202.4L272.672 210.833L281.872 206.233L276.505 202.4ZM357.005 180.167L350.872 208.533L388.439 197.8L357.005 180.167ZM276.505 201.633L281.872 205.467L297.205 197.8L297.972 193.967L279.572 196.267L276.505 201.633ZM270.372 197.8L276.505 202.4L278.805 197.033L270.372 197.8ZM257.339 188.6L247.372 199.333L269.605 197.033L257.339 188.6ZM254.272 187.067L247.372 198.567L256.572 188.6L254.272 187.067ZM297.972 194.733L297.205 198.567L306.405 193.967L297.972 194.733ZM357.772 180.167L389.205 197.8L383.072 167.133L357.772 180.167ZM383.839 167.133L389.972 197.033L401.472 185.533L383.839 167.133ZM257.339 188.6L269.605 197.033L278.805 196.267L282.639 187.067L262.705 181.7L257.339 188.6ZM283.405 187.067L279.572 196.267L297.972 193.967L298.739 190.9L283.405 187.067ZM298.739 190.9L297.972 193.967L306.405 193.2L298.739 190.9ZM298.739 190.9L307.172 193.2L299.505 185.533L298.739 190.9ZM337.839 163.3L307.939 193.2L356.239 180.167L337.839 163.3ZM299.505 185.533L307.172 193.2L306.405 138L299.505 185.533ZM307.172 135.7L307.939 192.433L327.105 153.333L307.172 135.7ZM327.105 153.333L308.705 192.433L338.605 163.3L327.105 153.333ZM283.405 187.067L297.972 190.9L298.739 185.533L288.005 175.567L283.405 187.067ZM255.039 187.067L257.339 188.6L263.472 182.467L258.872 180.933L255.039 187.067ZM263.472 181.7L282.639 186.3L288.005 174.8L278.039 165.6L263.472 181.7ZM238.939 176.333L254.272 187.067L258.105 180.933L238.939 176.333ZM383.839 167.133L401.472 185.533L400.705 160.233L383.839 167.133ZM400.705 159.467L401.472 184.767L418.339 151.8L400.705 159.467ZM288.772 174.8L298.739 184.767L306.405 136.467L288.772 174.8ZM258.872 180.933L263.472 182.467L278.805 166.367L271.905 160.233L258.872 180.933ZM238.172 175.567L258.105 180.933L271.139 159.467L269.605 157.933L238.172 175.567ZM365.439 136.467L357.772 179.4L383.839 166.367L365.439 136.467ZM338.605 163.3L357.005 179.4L353.939 147.967L338.605 163.3ZM353.939 147.2L357.005 178.633L364.672 136.467L353.939 147.2ZM230.505 157.167L238.172 174.8L248.139 136.467L230.505 157.167ZM248.139 136.467L238.172 174.8L261.939 149.5L248.139 136.467ZM262.705 150.267L238.939 174.8L269.605 157.167L262.705 150.267ZM278.805 165.6L288.772 174.8L306.405 136.467L278.805 165.6ZM227.439 151.8L219.772 168.667L229.739 156.4L227.439 151.8ZM393.805 144.9L383.839 166.367L400.705 159.467V147.2L393.805 144.9ZM365.439 136.467L383.072 166.367L393.039 144.9L365.439 136.467ZM271.905 158.7L278.805 164.833L306.405 135.7L274.972 154.1L271.905 158.7ZM327.105 153.333L337.839 163.3L353.172 147.967L351.639 130.333L340.139 124.967L327.105 153.333ZM400.705 147.2V159.467L417.572 152.567L400.705 147.2ZM270.372 157.167L271.905 158.7L274.205 154.867L270.372 157.167ZM228.205 151.8L230.505 157.167L247.372 137.233L228.205 151.8ZM262.705 150.267L269.605 157.167L274.205 154.867L285.705 136.467H275.739L262.705 150.267ZM285.705 135.7L274.972 153.333L306.405 134.933L285.705 135.7ZM307.172 135.7L327.105 153.333L340.905 124.967L330.172 119.6L307.172 135.7ZM400.705 146.433L417.572 151.8L399.939 130.333L400.705 146.433ZM187.572 138.767L228.205 151.8L248.139 136.467L187.572 138.767ZM400.705 129.567L418.339 151.033L408.372 122.667L400.705 129.567ZM409.139 122.667L418.339 151.033L416.805 115.767L409.139 122.667ZM248.139 136.467L261.939 149.5L274.972 135.7L248.139 136.467ZM352.405 130.333L353.939 147.2L364.672 136.467L352.405 130.333ZM393.805 144.133L400.705 146.433V130.333L393.805 144.133ZM366.205 136.467L393.805 144.9L399.939 130.333L366.205 136.467ZM271.905 123.433L248.139 135.7H274.972L282.639 127.267L271.905 123.433ZM350.105 105.8L365.439 135.7L382.305 121.133L350.105 105.8ZM383.072 121.9L366.205 136.467L399.939 130.333L383.072 121.9ZM352.405 129.567L364.672 135.7L350.105 106.567L352.405 129.567ZM259.639 118.833L248.905 135.7L271.905 123.433L259.639 118.833ZM284.172 127.267L276.505 135.7H286.472L290.305 129.567L284.172 127.267ZM289.539 129.567L285.705 135.7H305.639L289.539 129.567ZM290.305 129.567L307.172 135.7L304.105 107.333L290.305 129.567ZM304.105 106.567L307.172 135.7L330.172 119.6L304.105 106.567ZM340.905 124.2L351.639 129.567L349.339 106.567L340.905 124.2ZM383.072 121.133L399.939 129.567L394.572 111.933L383.072 121.133ZM394.572 111.167L399.939 128.8L406.072 115L402.239 104.267L394.572 111.167ZM284.172 127.267L289.539 129.567L302.572 108.1L284.172 127.267ZM406.839 115.767L400.705 129.567L408.372 122.667L406.839 115.767ZM272.672 123.433L284.172 127.267L303.339 106.567L272.672 123.433ZM330.939 118.833L340.905 123.433L349.339 105.8L330.939 118.833ZM406.839 115L409.139 121.9L416.805 115L416.039 93.5333L406.839 115ZM350.105 105.8L382.305 121.133L393.805 111.167L389.205 95.8333L350.105 105.8ZM304.872 106.567L330.172 118.833L349.339 105.8L304.872 106.567ZM416.805 92.7667L417.572 115L431.372 102.733L416.805 92.7667ZM403.005 104.267L406.072 115L415.272 93.5333L403.005 104.267ZM389.972 96.6L394.572 111.167L403.005 104.267L399.172 93.5333L389.972 96.6ZM385.372 84.3333L350.872 105.033L389.205 95.8333L385.372 84.3333ZM399.939 93.5333L403.005 103.5L416.039 92.7667L399.939 93.5333ZM439.805 69.7667L400.705 93.5333L416.805 92.7667L439.805 69.7667Z" fill="#9DA4A7"/>
<path d="M219.003 187.834C218.236 187.834 219.003 187.834 219.003 187.834L191.403 173.267L223.603 184.767L219.003 187.834ZM193.703 174.034L219.003 187.067L223.603 184.767L193.703 174.034Z" fill="#9DA4A7"/>
<path d="M225.904 209.3L212.104 191.667H220.537L225.904 209.3C226.671 209.3 226.671 209.3 225.904 209.3ZM212.871 192.433L225.904 208.533L221.304 192.433H212.871Z" fill="#9DA4A7"/>
<path d="M212.104 230L173.771 223.1L203.671 215.433L212.104 230C212.104 229.233 212.104 229.233 212.104 230ZM174.537 222.333L212.104 229.233L202.904 214.667L174.537 222.333Z" fill="#9DA4A7"/>
<path d="M173.007 252.233L175.307 243.033L196.007 240.733L173.007 252.233ZM175.307 243.799L173.007 252.233L195.24 242.266L175.307 243.799Z" fill="#9DA4A7"/>
<path d="M140.038 279.067C139.271 279.067 140.038 279.067 140.038 279.067L184.505 256.833L181.438 272.933L140.038 279.067ZM183.738 257.6L140.805 279.067L180.671 272.933L183.738 257.6Z" fill="#9DA4A7"/>
<path d="M133.903 318.166L118.569 313.566L123.936 282.899L133.903 318.166C134.669 318.166 134.669 318.166 133.903 318.166C134.669 318.166 133.903 318.166 133.903 318.166ZM118.569 313.566L133.903 317.399L123.936 283.666L118.569 313.566Z" fill="#9DA4A7"/>
<path d="M101.707 341.166L81.0066 338.866L127.007 325.066L101.707 341.166ZM81.7733 338.099L101.707 340.399L126.24 325.066L81.7733 338.099Z" fill="#9DA4A7"/>
<path d="M67.972 322L84.8386 299L90.2053 310.5L67.972 322ZM84.8386 299L68.7386 321.233L89.4386 309.733L84.8386 299Z" fill="#9DA4A7"/>
<path d="M84.8373 370.3L65.6706 369.534L58.7706 358.8L84.8373 370.3ZM65.6706 368.767L83.304 369.534L58.7706 358.8L65.6706 368.767Z" fill="#9DA4A7"/>
<path d="M131.607 375.667L100.173 360.333L151.54 361.1L131.607 375.667ZM100.94 360.333L131.607 374.9L150.773 361.1L100.94 360.333Z" fill="#9DA4A7"/>
<path d="M21.972 407.867L18.1386 401.734L39.6053 400.201L21.972 407.867ZM18.9053 401.734L21.972 407.101L38.8386 399.434L18.9053 401.734Z" fill="#9DA4A7"/>
<path d="M95.5706 400.2L81.7706 398.667L103.237 397.134L95.5706 400.2ZM83.304 398.667L95.5706 400.2L102.471 397.134L83.304 398.667Z" fill="#9DA4A7"/>
<path d="M150.774 263.733C150.007 262.966 150.774 263.733 150.774 263.733L156.907 227.7L164.574 249.166L150.774 263.733ZM156.907 228.466L150.774 262.966L164.574 249.166L156.907 228.466Z" fill="#9DA4A7"/>
<path d="M308.701 262.967C308.701 262.201 309.468 261.434 310.235 261.434C311.001 261.434 311.768 262.201 311.768 262.967C311.768 263.734 311.001 264.501 310.235 264.501C309.468 264.501 308.701 263.734 308.701 262.967Z" fill="#352E31"/>
<path d="M170.702 405.566C170.702 404.8 171.469 404.033 172.236 404.033C173.002 404.033 173.769 404.8 173.769 405.566C173.769 406.333 173.002 407.1 172.236 407.1C170.702 407.1 169.936 406.333 170.702 405.566Z" fill="#352E31"/>
<path d="M159.972 351.9C159.972 351.133 160.739 350.366 161.505 350.366C162.272 350.366 163.039 351.133 163.039 351.9C163.039 352.666 162.272 353.433 161.505 353.433C159.972 353.433 159.972 352.666 159.972 351.9Z" fill="#352E31"/>
<path d="M123.168 342.7C123.168 341.933 123.934 341.167 124.701 341.167C125.468 341.167 126.234 341.933 126.234 342.7C126.234 343.467 125.468 344.233 124.701 344.233C123.168 344.233 122.401 343.467 123.168 342.7Z" fill="#352E31"/>
<path d="M147.701 324.301C147.701 323.534 148.468 322.767 149.235 322.767C150.001 322.767 150.768 323.534 150.768 324.301C150.768 325.067 150.001 325.834 149.235 325.834C147.701 325.834 147.701 325.067 147.701 324.301Z" fill="#352E31"/>
<path d="M144.639 295.934C144.639 295.168 145.405 294.401 146.172 294.401C146.939 294.401 147.705 295.168 147.705 295.934C147.705 296.701 146.939 297.468 146.172 297.468C145.405 297.468 144.639 296.701 144.639 295.934Z" fill="#352E31"/>
<path d="M196.771 295.167C196.771 294.4 197.537 293.634 198.304 293.634C199.071 293.634 199.837 294.4 199.837 295.167C199.837 295.934 199.071 296.7 198.304 296.7C197.537 296.7 196.771 295.934 196.771 295.167Z" fill="#352E31"/>
<path d="M191.403 252.233C191.403 251.466 192.169 250.7 192.936 250.7C193.703 250.7 194.469 251.466 194.469 252.233C194.469 253 193.703 253.766 192.936 253.766C191.403 253.766 191.403 253.766 191.403 252.233Z" fill="#352E31"/>
<path d="M227.437 231.533C227.437 230.767 228.204 230 228.971 230C229.737 230 230.504 230.767 230.504 231.533C230.504 232.3 229.737 233.067 228.971 233.067C228.204 233.067 227.437 232.3 227.437 231.533Z" fill="#352E31"/>
<path d="M225.904 217.733C225.904 216.966 226.67 216.2 227.437 216.2C228.204 216.2 228.97 216.966 228.97 217.733C228.97 218.5 228.204 219.266 227.437 219.266C225.904 219.266 225.137 218.5 225.904 217.733Z" fill="#352E31"/>
<path d="M245.069 199.334C245.069 198.567 245.836 197.8 246.603 197.8C247.369 197.8 248.136 198.567 248.136 199.334C248.136 200.1 247.369 200.867 246.603 200.867C245.836 200.867 245.069 200.1 245.069 199.334Z" fill="#352E31"/>
<path d="M236.639 175.566C236.639 174.8 237.405 174.033 238.172 174.033C238.939 174.033 239.705 174.8 239.705 175.566C239.705 176.333 238.939 177.1 238.172 177.1C236.639 177.1 236.639 176.333 236.639 175.566Z" fill="#352E31"/>
<path d="M217.472 170.2C217.472 169.433 218.239 168.667 219.005 168.667C219.772 168.667 220.539 169.433 220.539 170.2C220.539 170.967 219.772 171.733 219.005 171.733C218.239 171.733 217.472 170.967 217.472 170.2Z" fill="#352E31"/>
<path d="M184.5 138.768C184.5 138.001 185.267 137.234 186.033 137.234C186.8 137.234 187.567 138.001 187.567 138.768C187.567 139.534 186.8 140.301 186.033 140.301C185.267 140.301 184.5 139.534 184.5 138.768Z" fill="#352E31"/>
<path d="M439.805 69.0003C439.805 68.2336 440.572 67.467 441.339 67.467C442.105 67.467 442.872 68.2336 442.872 69.0003C442.872 69.767 442.105 70.5336 441.339 70.5336C439.805 70.5336 439.805 69.767 439.805 69.0003Z" fill="#352E31"/>
<path d="M370.036 323.533C370.036 322.767 370.802 322 371.569 322C372.336 322 373.102 322.767 373.102 323.533C373.102 324.3 372.336 325.067 371.569 325.067C370.036 325.067 369.269 324.3 370.036 323.533Z" fill="#352E31"/>
<path d="M275.736 291.334C275.736 290.567 276.503 289.8 277.269 289.8C278.036 289.8 278.803 290.567 278.803 291.334C278.803 292.1 278.036 292.867 277.269 292.867C276.503 292.867 275.736 292.1 275.736 291.334Z" fill="#352E31"/>
<path d="M196.771 295.167C196.771 294.4 197.537 293.634 198.304 293.634C199.071 293.634 199.837 294.4 199.837 295.167C199.837 295.934 199.071 296.7 198.304 296.7C197.537 296.7 196.771 295.934 196.771 295.167Z" fill="#352E31"/>
<path d="M205.201 358.033C205.201 357.267 205.968 356.5 206.735 356.5C207.501 356.5 208.268 357.267 208.268 358.033C208.268 358.8 207.501 359.567 206.735 359.567C205.968 359.567 205.201 358.8 205.201 358.033Z" fill="#352E31"/>
<path d="M188.333 387.934C188.333 387.168 189.1 386.401 189.867 386.401C190.633 386.401 191.4 387.168 191.4 387.934C191.4 388.701 190.633 389.468 189.867 389.468C188.333 389.468 188.333 388.701 188.333 387.934Z" fill="#352E31"/>
<path d="M159.972 351.9C159.972 351.133 160.739 350.366 161.505 350.366C162.272 350.366 163.039 351.133 163.039 351.9C163.039 352.666 162.272 353.433 161.505 353.433C159.972 353.433 159.972 352.666 159.972 351.9Z" fill="#352E31"/>
<path d="M166.868 389.467C166.868 388.701 167.635 387.934 168.401 387.934C169.168 387.934 169.935 388.701 169.935 389.467C169.935 390.234 169.168 391.001 168.401 391.001C167.635 391.001 166.868 390.234 166.868 389.467Z" fill="#352E31"/>
<path d="M205.201 358.033C205.201 357.267 205.968 356.5 206.735 356.5C207.501 356.5 208.268 357.267 208.268 358.033C208.268 358.8 207.501 359.567 206.735 359.567C205.968 359.567 205.201 358.8 205.201 358.033Z" fill="#352E31"/>
<path d="M245.833 328.134C245.833 327.367 246.6 326.601 247.367 326.601C248.133 326.601 248.9 327.367 248.9 328.134C248.9 328.901 248.133 329.667 247.367 329.667C246.6 329.667 245.833 328.901 245.833 328.134Z" fill="#352E31"/>
<path d="M234.333 315.101C234.333 314.334 235.1 313.568 235.867 313.568C236.633 313.568 237.4 314.334 237.4 315.101C237.4 315.868 236.633 316.634 235.867 316.634C235.1 316.634 234.333 315.868 234.333 315.101Z" fill="#352E31"/>
<path d="M205.201 358.033C205.201 357.267 205.968 356.5 206.735 356.5C207.501 356.5 208.268 357.267 208.268 358.033C208.268 358.8 207.501 359.567 206.735 359.567C205.968 359.567 205.201 358.8 205.201 358.033Z" fill="#352E31"/>
<path d="M214.404 312.801C214.404 312.034 215.17 311.267 215.937 311.267C216.704 311.267 217.47 312.034 217.47 312.801C217.47 313.567 216.704 314.334 215.937 314.334C214.404 314.334 213.637 313.567 214.404 312.801Z" fill="#352E31"/>
<path d="M159.972 351.9C159.972 351.133 160.739 350.366 161.505 350.366C162.272 350.366 163.039 351.133 163.039 351.9C163.039 352.666 162.272 353.433 161.505 353.433C159.972 353.433 159.972 352.666 159.972 351.9Z" fill="#352E31"/>
<path d="M205.201 358.033C205.201 357.267 205.968 356.5 206.735 356.5C207.501 356.5 208.268 357.267 208.268 358.033C208.268 358.8 207.501 359.567 206.735 359.567C205.968 359.567 205.201 358.8 205.201 358.033Z" fill="#352E31"/>
<path d="M147.701 324.301C147.701 323.534 148.468 322.767 149.235 322.767C150.001 322.767 150.768 323.534 150.768 324.301C150.768 325.067 150.001 325.834 149.235 325.834C147.701 325.834 147.701 325.067 147.701 324.301Z" fill="#352E31"/>
<path d="M159.972 351.9C159.972 351.133 160.739 350.366 161.505 350.366C162.272 350.366 163.039 351.133 163.039 351.9C163.039 352.666 162.272 353.433 161.505 353.433C159.972 353.433 159.972 352.666 159.972 351.9Z" fill="#352E31"/>
<path d="M196.771 295.167C196.771 294.4 197.537 293.634 198.304 293.634C199.071 293.634 199.837 294.4 199.837 295.167C199.837 295.934 199.071 296.7 198.304 296.7C197.537 296.7 196.771 295.934 196.771 295.167Z" fill="#352E31"/>
<path d="M147.701 324.301C147.701 323.534 148.468 322.767 149.235 322.767C150.001 322.767 150.768 323.534 150.768 324.301C150.768 325.067 150.001 325.834 149.235 325.834C147.701 325.834 147.701 325.067 147.701 324.301Z" fill="#352E31"/>
<path d="M214.404 312.801C214.404 312.034 215.17 311.267 215.937 311.267C216.704 311.267 217.47 312.034 217.47 312.801C217.47 313.567 216.704 314.334 215.937 314.334C214.404 314.334 213.637 313.567 214.404 312.801Z" fill="#352E31"/>
<path d="M234.333 315.101C234.333 314.334 235.1 313.568 235.867 313.568C236.633 313.568 237.4 314.334 237.4 315.101C237.4 315.868 236.633 316.634 235.867 316.634C235.1 316.634 234.333 315.868 234.333 315.101Z" fill="#352E31"/>
<path d="M196.771 295.167C196.771 294.4 197.537 293.634 198.304 293.634C199.071 293.634 199.837 294.4 199.837 295.167C199.837 295.934 199.071 296.7 198.304 296.7C197.537 296.7 196.771 295.934 196.771 295.167Z" fill="#352E31"/>
<path d="M214.404 312.801C214.404 312.034 215.17 311.267 215.937 311.267C216.704 311.267 217.47 312.034 217.47 312.801C217.47 313.567 216.704 314.334 215.937 314.334C214.404 314.334 213.637 313.567 214.404 312.801Z" fill="#352E31"/>
<path d="M227.437 231.533C227.437 230.767 228.204 230 228.971 230C229.737 230 230.504 230.767 230.504 231.533C230.504 232.3 229.737 233.067 228.971 233.067C228.204 233.067 227.437 232.3 227.437 231.533Z" fill="#352E31"/>
<path d="M196.771 295.167C196.771 294.4 197.537 293.634 198.304 293.634C199.071 293.634 199.837 294.4 199.837 295.167C199.837 295.934 199.071 296.7 198.304 296.7C197.537 296.7 196.771 295.934 196.771 295.167Z" fill="#352E31"/>
<path d="M234.333 265.268C234.333 264.501 235.1 263.734 235.867 263.734C236.633 263.734 237.4 264.501 237.4 265.268C237.4 266.034 236.633 266.801 235.867 266.801C234.333 266.801 234.333 266.034 234.333 265.268Z" fill="#352E31"/>
<path d="M234.333 315.101C234.333 314.334 235.1 313.568 235.867 313.568C236.633 313.568 237.4 314.334 237.4 315.101C237.4 315.868 236.633 316.634 235.867 316.634C235.1 316.634 234.333 315.868 234.333 315.101Z" fill="#352E31"/>
<path d="M275.736 291.334C275.736 290.567 276.503 289.8 277.269 289.8C278.036 289.8 278.803 290.567 278.803 291.334C278.803 292.1 278.036 292.867 277.269 292.867C276.503 292.867 275.736 292.1 275.736 291.334Z" fill="#352E31"/>
<path d="M253.5 248.4C253.5 247.633 254.267 246.866 255.033 246.866C255.8 246.866 256.567 247.633 256.567 248.4C256.567 249.166 255.8 249.933 255.033 249.933C253.5 249.933 253.5 249.933 253.5 248.4Z" fill="#352E31"/>
<path d="M191.403 252.233C191.403 251.466 192.169 250.7 192.936 250.7C193.703 250.7 194.469 251.466 194.469 252.233C194.469 253 193.703 253.766 192.936 253.766C191.403 253.766 191.403 253.766 191.403 252.233Z" fill="#352E31"/>
<path d="M234.333 265.268C234.333 264.501 235.1 263.734 235.867 263.734C236.633 263.734 237.4 264.501 237.4 265.268C237.4 266.034 236.633 266.801 235.867 266.801C234.333 266.801 234.333 266.034 234.333 265.268Z" fill="#352E31"/>
<path d="M275.736 291.334C275.736 290.567 276.503 289.8 277.269 289.8C278.036 289.8 278.803 290.567 278.803 291.334C278.803 292.1 278.036 292.867 277.269 292.867C276.503 292.867 275.736 292.1 275.736 291.334Z" fill="#352E31"/>
<path d="M296.437 275.233C296.437 274.466 297.204 273.7 297.971 273.7C298.737 273.7 299.504 274.466 299.504 275.233C299.504 276 298.737 276.766 297.971 276.766C297.204 276.766 296.437 276 296.437 275.233Z" fill="#352E31"/>
<path d="M288 250.7C288 249.933 288.767 249.167 289.533 249.167C290.3 249.167 291.067 249.933 291.067 250.7C291.067 251.467 290.3 252.233 289.533 252.233C288 252.233 288 251.467 288 250.7Z" fill="#352E31"/>
<path d="M275.736 291.334C275.736 290.567 276.503 289.8 277.269 289.8C278.036 289.8 278.803 290.567 278.803 291.334C278.803 292.1 278.036 292.867 277.269 292.867C276.503 292.867 275.736 292.1 275.736 291.334Z" fill="#352E31"/>
<path d="M321.736 233.834C321.736 233.067 322.503 232.3 323.269 232.3C324.036 232.3 324.803 233.067 324.803 233.834C324.803 234.6 324.036 235.367 323.269 235.367C322.503 235.367 321.736 234.6 321.736 233.834Z" fill="#352E31"/>
<path d="M236.639 175.566C236.639 174.8 237.405 174.033 238.172 174.033C238.939 174.033 239.705 174.8 239.705 175.566C239.705 176.333 238.939 177.1 238.172 177.1C236.639 177.1 236.639 176.333 236.639 175.566Z" fill="#352E31"/>
<path d="M225.903 151.801C225.903 151.034 226.669 150.267 227.436 150.267C228.203 150.267 228.969 151.034 228.969 151.801C228.969 152.567 228.203 153.334 227.436 153.334C226.669 153.334 225.903 152.567 225.903 151.801Z" fill="#352E31"/>
<path d="M246.604 135.7C246.604 134.933 247.371 134.167 248.137 134.167C248.904 134.167 249.671 134.933 249.671 135.7C249.671 136.467 248.904 137.233 248.137 137.233C247.371 137.233 246.604 136.467 246.604 135.7Z" fill="#352E31"/>
<path d="M217.472 170.2C217.472 169.433 218.239 168.667 219.005 168.667C219.772 168.667 220.539 169.433 220.539 170.2C220.539 170.967 219.772 171.733 219.005 171.733C218.239 171.733 217.472 170.967 217.472 170.2Z" fill="#352E31"/>
<path d="M225.903 151.801C225.903 151.034 226.669 150.267 227.436 150.267C228.203 150.267 228.969 151.034 228.969 151.801C228.969 152.567 228.203 153.334 227.436 153.334C226.669 153.334 225.903 152.567 225.903 151.801Z" fill="#352E31"/>
<path d="M184.5 138.768C184.5 138.001 185.267 137.234 186.033 137.234C186.8 137.234 187.567 138.001 187.567 138.768C187.567 139.534 186.8 140.301 186.033 140.301C185.267 140.301 184.5 139.534 184.5 138.768Z" fill="#352E31"/>
<path d="M246.604 135.7C246.604 134.933 247.371 134.167 248.137 134.167C248.904 134.167 249.671 134.933 249.671 135.7C249.671 136.467 248.904 137.233 248.137 137.233C247.371 137.233 246.604 136.467 246.604 135.7Z" fill="#352E31"/>
<path d="M258.104 118.066C258.104 117.3 258.871 116.533 259.637 116.533C260.404 116.533 261.171 117.3 261.171 118.066C261.171 118.833 260.404 119.6 259.637 119.6C258.104 119.6 258.104 118.833 258.104 118.066Z" fill="#352E31"/>
<path d="M305.633 135.7C305.633 134.933 306.4 134.167 307.166 134.167C307.933 134.167 308.7 134.933 308.7 135.7C308.7 136.467 307.933 137.233 307.166 137.233C305.633 137.233 304.866 136.467 305.633 135.7Z" fill="#352E31"/>
<path d="M253.5 248.4C253.5 247.633 254.267 246.866 255.033 246.866C255.8 246.866 256.567 247.633 256.567 248.4C256.567 249.166 255.8 249.933 255.033 249.933C253.5 249.933 253.5 249.933 253.5 248.4Z" fill="#352E31"/>
<path d="M322.5 210.834C322.5 210.067 323.267 209.3 324.033 209.3C324.8 209.3 325.567 210.067 325.567 210.834C325.567 211.6 324.8 212.367 324.033 212.367C323.267 212.367 322.5 211.6 322.5 210.834Z" fill="#352E31"/>
<path d="M225.904 217.733C225.904 216.966 226.67 216.2 227.437 216.2C228.204 216.2 228.97 216.966 228.97 217.733C228.97 218.5 228.204 219.266 227.437 219.266C225.904 219.266 225.137 218.5 225.904 217.733Z" fill="#352E31"/>
<path d="M288 250.7C288 249.933 288.767 249.167 289.533 249.167C290.3 249.167 291.067 249.933 291.067 250.7C291.067 251.467 290.3 252.233 289.533 252.233C288 252.233 288 251.467 288 250.7Z" fill="#352E31"/>
<path d="M234.333 265.268C234.333 264.501 235.1 263.734 235.867 263.734C236.633 263.734 237.4 264.501 237.4 265.268C237.4 266.034 236.633 266.801 235.867 266.801C234.333 266.801 234.333 266.034 234.333 265.268Z" fill="#352E31"/>
<path d="M245.069 199.334C245.069 198.567 245.836 197.8 246.603 197.8C247.369 197.8 248.136 198.567 248.136 199.334C248.136 200.1 247.369 200.867 246.603 200.867C245.836 200.867 245.069 200.1 245.069 199.334Z" fill="#352E31"/>
<path d="M253.5 248.4C253.5 247.633 254.267 246.866 255.033 246.866C255.8 246.866 256.567 247.633 256.567 248.4C256.567 249.166 255.8 249.933 255.033 249.933C253.5 249.933 253.5 249.933 253.5 248.4Z" fill="#352E31"/>
<path d="M227.437 231.533C227.437 230.767 228.204 230 228.971 230C229.737 230 230.504 230.767 230.504 231.533C230.504 232.3 229.737 233.067 228.971 233.067C228.204 233.067 227.437 232.3 227.437 231.533Z" fill="#352E31"/>
<path d="M306.403 193.2C306.403 192.433 307.169 191.667 307.936 191.667C308.703 191.667 309.469 192.433 309.469 193.2C309.469 193.967 308.703 194.733 307.936 194.733C306.403 194.733 306.403 193.967 306.403 193.2Z" fill="#352E31"/>
<path d="M245.069 199.334C245.069 198.567 245.836 197.8 246.603 197.8C247.369 197.8 248.136 198.567 248.136 199.334C248.136 200.1 247.369 200.867 246.603 200.867C245.836 200.867 245.069 200.1 245.069 199.334Z" fill="#352E31"/>
<path d="M288 250.7C288 249.933 288.767 249.167 289.533 249.167C290.3 249.167 291.067 249.933 291.067 250.7C291.067 251.467 290.3 252.233 289.533 252.233C288 252.233 288 251.467 288 250.7Z" fill="#352E31"/>
<path d="M305.633 135.7C305.633 134.933 306.4 134.167 307.166 134.167C307.933 134.167 308.7 134.933 308.7 135.7C308.7 136.467 307.933 137.233 307.166 137.233C305.633 137.233 304.866 136.467 305.633 135.7Z" fill="#352E31"/>
<path d="M245.069 199.334C245.069 198.567 245.836 197.8 246.603 197.8C247.369 197.8 248.136 198.567 248.136 199.334C248.136 200.1 247.369 200.867 246.603 200.867C245.836 200.867 245.069 200.1 245.069 199.334Z" fill="#352E31"/>
<path d="M302.569 105.801C302.569 105.034 303.336 104.267 304.103 104.267C304.869 104.267 305.636 105.034 305.636 105.801C305.636 106.567 304.869 107.334 304.103 107.334C303.336 107.334 302.569 106.567 302.569 105.801Z" fill="#352E31"/>
<path d="M246.604 135.7C246.604 134.933 247.371 134.167 248.137 134.167C248.904 134.167 249.671 134.933 249.671 135.7C249.671 136.467 248.904 137.233 248.137 137.233C247.371 137.233 246.604 136.467 246.604 135.7Z" fill="#352E31"/>
<path d="M236.639 175.566C236.639 174.8 237.405 174.033 238.172 174.033C238.939 174.033 239.705 174.8 239.705 175.566C239.705 176.333 238.939 177.1 238.172 177.1C236.639 177.1 236.639 176.333 236.639 175.566Z" fill="#352E31"/>
<path d="M306.403 193.2C306.403 192.433 307.169 191.667 307.936 191.667C308.703 191.667 309.469 192.433 309.469 193.2C309.469 193.967 308.703 194.733 307.936 194.733C306.403 194.733 306.403 193.967 306.403 193.2Z" fill="#352E31"/>
<path d="M246.604 135.7C246.604 134.933 247.371 134.167 248.137 134.167C248.904 134.167 249.671 134.933 249.671 135.7C249.671 136.467 248.904 137.233 248.137 137.233C247.371 137.233 246.604 136.467 246.604 135.7Z" fill="#352E31"/>
<path d="M305.633 135.7C305.633 134.933 306.4 134.167 307.166 134.167C307.933 134.167 308.7 134.933 308.7 135.7C308.7 136.467 307.933 137.233 307.166 137.233C305.633 137.233 304.866 136.467 305.633 135.7Z" fill="#352E31"/>
<path d="M236.639 175.566C236.639 174.8 237.405 174.033 238.172 174.033C238.939 174.033 239.705 174.8 239.705 175.566C239.705 176.333 238.939 177.1 238.172 177.1C236.639 177.1 236.639 176.333 236.639 175.566Z" fill="#352E31"/>
<path d="M302.569 105.801C302.569 105.034 303.336 104.267 304.103 104.267C304.869 104.267 305.636 105.034 305.636 105.801C305.636 106.567 304.869 107.334 304.103 107.334C303.336 107.334 302.569 106.567 302.569 105.801Z" fill="#352E31"/>
<path d="M305.633 135.7C305.633 134.933 306.4 134.167 307.166 134.167C307.933 134.167 308.7 134.933 308.7 135.7C308.7 136.467 307.933 137.233 307.166 137.233C305.633 137.233 304.866 136.467 305.633 135.7Z" fill="#352E31"/>
<path d="M348.57 105.033C348.57 104.267 349.337 103.5 350.104 103.5C350.87 103.5 351.637 104.267 351.637 105.033C351.637 105.8 350.87 106.567 350.104 106.567C348.57 106.567 347.804 105.8 348.57 105.033Z" fill="#352E31"/>
<path d="M355.472 179.4C355.472 178.633 356.239 177.866 357.005 177.866C357.772 177.866 358.539 178.633 358.539 179.4C358.539 180.166 357.772 180.933 357.005 180.933C356.239 180.933 355.472 180.166 355.472 179.4Z" fill="#352E31"/>
<path d="M305.633 135.7C305.633 134.933 306.4 134.167 307.166 134.167C307.933 134.167 308.7 134.933 308.7 135.7C308.7 136.467 307.933 137.233 307.166 137.233C305.633 137.233 304.866 136.467 305.633 135.7Z" fill="#352E31"/>
<path d="M306.403 193.2C306.403 192.433 307.169 191.667 307.936 191.667C308.703 191.667 309.469 192.433 309.469 193.2C309.469 193.967 308.703 194.733 307.936 194.733C306.403 194.733 306.403 193.967 306.403 193.2Z" fill="#352E31"/>
<path d="M348.57 105.033C348.57 104.267 349.337 103.5 350.104 103.5C350.87 103.5 351.637 104.267 351.637 105.033C351.637 105.8 350.87 106.567 350.104 106.567C348.57 106.567 347.804 105.8 348.57 105.033Z" fill="#352E31"/>
<path d="M363.903 135.7C363.903 134.933 364.669 134.167 365.436 134.167C366.203 134.167 366.969 134.933 366.969 135.7C366.969 136.467 366.203 137.233 365.436 137.233C364.669 137.233 363.903 136.467 363.903 135.7Z" fill="#352E31"/>
<path d="M302.569 105.801C302.569 105.034 303.336 104.267 304.103 104.267C304.869 104.267 305.636 105.034 305.636 105.801C305.636 106.567 304.869 107.334 304.103 107.334C303.336 107.334 302.569 106.567 302.569 105.801Z" fill="#352E31"/>
<path d="M348.57 105.033C348.57 104.267 349.337 103.5 350.104 103.5C350.87 103.5 351.637 104.267 351.637 105.033C351.637 105.8 350.87 106.567 350.104 106.567C348.57 106.567 347.804 105.8 348.57 105.033Z" fill="#352E31"/>
<path d="M383.833 83.5663C383.833 82.7996 384.6 82.033 385.367 82.033C386.133 82.033 386.9 82.7996 386.9 83.5663C386.9 84.333 386.133 85.0996 385.367 85.0996C384.6 85.0996 383.833 84.333 383.833 83.5663Z" fill="#352E31"/>
<path d="M398.403 129.566C398.403 128.8 399.169 128.033 399.936 128.033C400.703 128.033 401.469 128.8 401.469 129.566C401.469 130.333 400.703 131.1 399.936 131.1C399.169 131.1 398.403 130.333 398.403 129.566Z" fill="#352E31"/>
<path d="M348.57 105.033C348.57 104.267 349.337 103.5 350.104 103.5C350.87 103.5 351.637 104.267 351.637 105.033C351.637 105.8 350.87 106.567 350.104 106.567C348.57 106.567 347.804 105.8 348.57 105.033Z" fill="#352E31"/>
<path d="M398.403 93.5333C398.403 92.7666 399.169 92 399.936 92C400.703 92 401.469 92.7666 401.469 93.5333C401.469 94.3 400.703 95.0666 399.936 95.0666C398.403 95.0666 398.403 94.3 398.403 93.5333Z" fill="#352E31"/>
<path d="M416.805 151.801C416.805 151.034 417.572 150.267 418.339 150.267C419.105 150.267 419.872 151.034 419.872 151.801C419.872 152.567 419.105 153.334 418.339 153.334C417.572 153.334 416.805 152.567 416.805 151.801Z" fill="#352E31"/>
<path d="M363.903 135.7C363.903 134.933 364.669 134.167 365.436 134.167C366.203 134.167 366.969 134.933 366.969 135.7C366.969 136.467 366.203 137.233 365.436 137.233C364.669 137.233 363.903 136.467 363.903 135.7Z" fill="#352E31"/>
<path d="M414.5 92.7677C414.5 92.001 415.267 91.2343 416.033 91.2343C416.8 91.2343 417.567 92.001 417.567 92.7677C417.567 93.5343 416.8 94.301 416.033 94.301C415.267 94.301 414.5 93.5343 414.5 92.7677Z" fill="#352E31"/>
<path d="M398.403 93.5333C398.403 92.7666 399.169 92 399.936 92C400.703 92 401.469 92.7666 401.469 93.5333C401.469 94.3 400.703 95.0666 399.936 95.0666C398.403 95.0666 398.403 94.3 398.403 93.5333Z" fill="#352E31"/>
<path d="M439.805 69.0003C439.805 68.2336 440.572 67.467 441.339 67.467C442.105 67.467 442.872 68.2336 442.872 69.0003C442.872 69.767 442.105 70.5336 441.339 70.5336C439.805 70.5336 439.805 69.767 439.805 69.0003Z" fill="#352E31"/>
<path d="M414.5 92.7677C414.5 92.001 415.267 91.2343 416.033 91.2343C416.8 91.2343 417.567 92.001 417.567 92.7677C417.567 93.5343 416.8 94.301 416.033 94.301C415.267 94.301 414.5 93.5343 414.5 92.7677Z" fill="#352E31"/>
<path d="M430.605 102.733C430.605 101.966 431.372 101.2 432.138 101.2C432.905 101.2 433.672 101.966 433.672 102.733C433.672 103.5 432.905 104.266 432.138 104.266C430.605 104.266 429.838 103.5 430.605 102.733Z" fill="#352E31"/>
<path d="M398.403 129.566C398.403 128.8 399.169 128.033 399.936 128.033C400.703 128.033 401.469 128.8 401.469 129.566C401.469 130.333 400.703 131.1 399.936 131.1C399.169 131.1 398.403 130.333 398.403 129.566Z" fill="#352E31"/>
<path d="M414.5 92.7677C414.5 92.001 415.267 91.2343 416.033 91.2343C416.8 91.2343 417.567 92.001 417.567 92.7677C417.567 93.5343 416.8 94.301 416.033 94.301C415.267 94.301 414.5 93.5343 414.5 92.7677Z" fill="#352E31"/>
<path d="M416.805 151.801C416.805 151.034 417.572 150.267 418.339 150.267C419.105 150.267 419.872 151.034 419.872 151.801C419.872 152.567 419.105 153.334 418.339 153.334C417.572 153.334 416.805 152.567 416.805 151.801Z" fill="#352E31"/>
<path d="M398.403 129.566C398.403 128.8 399.169 128.033 399.936 128.033C400.703 128.033 401.469 128.8 401.469 129.566C401.469 130.333 400.703 131.1 399.936 131.1C399.169 131.1 398.403 130.333 398.403 129.566Z" fill="#352E31"/>
<path d="M363.903 135.7C363.903 134.933 364.669 134.167 365.436 134.167C366.203 134.167 366.969 134.933 366.969 135.7C366.969 136.467 366.203 137.233 365.436 137.233C364.669 137.233 363.903 136.467 363.903 135.7Z" fill="#352E31"/>
<path d="M306.403 193.2C306.403 192.433 307.169 191.667 307.936 191.667C308.703 191.667 309.469 192.433 309.469 193.2C309.469 193.967 308.703 194.733 307.936 194.733C306.403 194.733 306.403 193.967 306.403 193.2Z" fill="#352E31"/>
<path d="M288 250.7C288 249.933 288.767 249.167 289.533 249.167C290.3 249.167 291.067 249.933 291.067 250.7C291.067 251.467 290.3 252.233 289.533 252.233C288 252.233 288 251.467 288 250.7Z" fill="#352E31"/>
<path d="M308.701 262.967C308.701 262.201 309.468 261.434 310.235 261.434C311.001 261.434 311.768 262.201 311.768 262.967C311.768 263.734 311.001 264.501 310.235 264.501C309.468 264.501 308.701 263.734 308.701 262.967Z" fill="#352E31"/>
<path d="M321.736 233.834C321.736 233.067 322.503 232.3 323.269 232.3C324.036 232.3 324.803 233.067 324.803 233.834C324.803 234.6 324.036 235.367 323.269 235.367C322.503 235.367 321.736 234.6 321.736 233.834Z" fill="#352E31"/>
<path d="M288 250.7C288 249.933 288.767 249.167 289.533 249.167C290.3 249.167 291.067 249.933 291.067 250.7C291.067 251.467 290.3 252.233 289.533 252.233C288 252.233 288 251.467 288 250.7Z" fill="#352E31"/>
<path d="M322.5 210.834C322.5 210.067 323.267 209.3 324.033 209.3C324.8 209.3 325.567 210.067 325.567 210.834C325.567 211.6 324.8 212.367 324.033 212.367C323.267 212.367 322.5 211.6 322.5 210.834Z" fill="#352E31"/>
<path d="M306.403 193.2C306.403 192.433 307.169 191.667 307.936 191.667C308.703 191.667 309.469 192.433 309.469 193.2C309.469 193.967 308.703 194.733 307.936 194.733C306.403 194.733 306.403 193.967 306.403 193.2Z" fill="#352E31"/>
<path d="M355.472 179.4C355.472 178.633 356.239 177.866 357.005 177.866C357.772 177.866 358.539 178.633 358.539 179.4C358.539 180.166 357.772 180.933 357.005 180.933C356.239 180.933 355.472 180.166 355.472 179.4Z" fill="#352E31"/>
<path d="M363.903 135.7C363.903 134.933 364.669 134.167 365.436 134.167C366.203 134.167 366.969 134.933 366.969 135.7C366.969 136.467 366.203 137.233 365.436 137.233C364.669 137.233 363.903 136.467 363.903 135.7Z" fill="#352E31"/>
<path d="M382.3 166.367C382.3 165.6 383.066 164.833 383.833 164.833C384.6 164.833 385.366 165.6 385.366 166.367C385.366 167.133 384.6 167.9 383.833 167.9C382.3 167.9 381.533 167.133 382.3 166.367Z" fill="#352E31"/>
<path d="M416.805 151.801C416.805 151.034 417.572 150.267 418.339 150.267C419.105 150.267 419.872 151.034 419.872 151.801C419.872 152.567 419.105 153.334 418.339 153.334C417.572 153.334 416.805 152.567 416.805 151.801Z" fill="#352E31"/>
<path d="M399.937 185.533C399.937 184.767 400.704 184 401.471 184C402.237 184 403.004 184.767 403.004 185.533C403.004 186.3 402.237 187.067 401.471 187.067C400.704 187.067 399.937 186.3 399.937 185.533Z" fill="#352E31"/>
<path d="M398.403 129.566C398.403 128.8 399.169 128.033 399.936 128.033C400.703 128.033 401.469 128.8 401.469 129.566C401.469 130.333 400.703 131.1 399.936 131.1C399.169 131.1 398.403 130.333 398.403 129.566Z" fill="#352E31"/>
<path d="M382.3 166.367C382.3 165.6 383.066 164.833 383.833 164.833C384.6 164.833 385.366 165.6 385.366 166.367C385.366 167.133 384.6 167.9 383.833 167.9C382.3 167.9 381.533 167.133 382.3 166.367Z" fill="#352E31"/>
<path d="M355.472 179.4C355.472 178.633 356.239 177.866 357.005 177.866C357.772 177.866 358.539 178.633 358.539 179.4C358.539 180.166 357.772 180.933 357.005 180.933C356.239 180.933 355.472 180.166 355.472 179.4Z" fill="#352E31"/>
<path d="M387.667 197.801C387.667 197.034 388.433 196.267 389.2 196.267C389.967 196.267 390.733 197.034 390.733 197.801C390.733 198.567 389.967 199.334 389.2 199.334C388.433 199.334 387.667 198.567 387.667 197.801Z" fill="#352E31"/>
<path d="M382.3 166.367C382.3 165.6 383.066 164.833 383.833 164.833C384.6 164.833 385.366 165.6 385.366 166.367C385.366 167.133 384.6 167.9 383.833 167.9C382.3 167.9 381.533 167.133 382.3 166.367Z" fill="#352E31"/>
<path d="M399.937 185.533C399.937 184.767 400.704 184 401.471 184C402.237 184 403.004 184.767 403.004 185.533C403.004 186.3 402.237 187.067 401.471 187.067C400.704 187.067 399.937 186.3 399.937 185.533Z" fill="#352E31"/>
<path d="M387.667 197.801C387.667 197.034 388.433 196.267 389.2 196.267C389.967 196.267 390.733 197.034 390.733 197.801C390.733 198.567 389.967 199.334 389.2 199.334C388.433 199.334 387.667 198.567 387.667 197.801Z" fill="#352E31"/>
<path d="M349.333 208.533C349.333 207.767 350.1 207 350.867 207C351.633 207 352.4 207.767 352.4 208.533C352.4 209.3 351.633 210.067 350.867 210.067C350.1 210.067 349.333 209.3 349.333 208.533Z" fill="#352E31"/>
<path d="M355.472 179.4C355.472 178.633 356.239 177.866 357.005 177.866C357.772 177.866 358.539 178.633 358.539 179.4C358.539 180.166 357.772 180.933 357.005 180.933C356.239 180.933 355.472 180.166 355.472 179.4Z" fill="#352E31"/>
<path d="M322.5 210.834C322.5 210.067 323.267 209.3 324.033 209.3C324.8 209.3 325.567 210.067 325.567 210.834C325.567 211.6 324.8 212.367 324.033 212.367C323.267 212.367 322.5 211.6 322.5 210.834Z" fill="#352E31"/>
<path d="M349.333 208.533C349.333 207.767 350.1 207 350.867 207C351.633 207 352.4 207.767 352.4 208.533C352.4 209.3 351.633 210.067 350.867 210.067C350.1 210.067 349.333 209.3 349.333 208.533Z" fill="#352E31"/>
<path d="M321.736 233.834C321.736 233.067 322.503 232.3 323.269 232.3C324.036 232.3 324.803 233.067 324.803 233.834C324.803 234.6 324.036 235.367 323.269 235.367C322.503 235.367 321.736 234.6 321.736 233.834Z" fill="#352E31"/>
<path d="M322.5 210.834C322.5 210.067 323.267 209.3 324.033 209.3C324.8 209.3 325.567 210.067 325.567 210.834C325.567 211.6 324.8 212.367 324.033 212.367C323.267 212.367 322.5 211.6 322.5 210.834Z" fill="#352E31"/>
<path d="M369.271 248.4C369.271 247.633 370.037 246.866 370.804 246.866C371.571 246.866 372.337 247.633 372.337 248.4C372.337 249.166 371.571 249.933 370.804 249.933C369.271 249.933 369.271 249.166 369.271 248.4Z" fill="#352E31"/>
<path d="M330.938 284.434C330.938 283.668 331.705 282.901 332.472 282.901C333.238 282.901 334.005 283.668 334.005 284.434C334.005 285.201 333.238 285.968 332.472 285.968C330.938 285.968 330.172 285.201 330.938 284.434Z" fill="#352E31"/>
<path d="M321.736 233.834C321.736 233.067 322.503 232.3 323.269 232.3C324.036 232.3 324.803 233.067 324.803 233.834C324.803 234.6 324.036 235.367 323.269 235.367C322.503 235.367 321.736 234.6 321.736 233.834Z" fill="#352E31"/>
<path d="M343.201 248.4C343.201 247.633 343.968 246.866 344.735 246.866C345.501 246.866 346.268 247.633 346.268 248.4C346.268 249.166 345.501 249.933 344.735 249.933C343.968 249.933 343.201 249.166 343.201 248.4Z" fill="#352E31"/>
<path d="M349.333 208.533C349.333 207.767 350.1 207 350.867 207C351.633 207 352.4 207.767 352.4 208.533C352.4 209.3 351.633 210.067 350.867 210.067C350.1 210.067 349.333 209.3 349.333 208.533Z" fill="#352E31"/>
<path d="M373.104 213.9C373.104 213.133 373.871 212.366 374.637 212.366C375.404 212.366 376.171 213.133 376.171 213.9C376.171 214.666 375.404 215.433 374.637 215.433C373.104 215.433 373.104 214.666 373.104 213.9Z" fill="#352E31"/>
<path d="M387.667 197.801C387.667 197.034 388.433 196.267 389.2 196.267C389.967 196.267 390.733 197.034 390.733 197.801C390.733 198.567 389.967 199.334 389.2 199.334C388.433 199.334 387.667 198.567 387.667 197.801Z" fill="#352E31"/>
<path d="M398.403 220.033C398.403 219.267 399.169 218.5 399.936 218.5C400.703 218.5 401.469 219.267 401.469 220.033C401.469 220.8 400.703 221.567 399.936 221.567C398.403 221.567 398.403 220.8 398.403 220.033Z" fill="#352E31"/>
<path d="M373.104 213.9C373.104 213.133 373.871 212.366 374.637 212.366C375.404 212.366 376.171 213.133 376.171 213.9C376.171 214.666 375.404 215.433 374.637 215.433C373.104 215.433 373.104 214.666 373.104 213.9Z" fill="#352E31"/>
<path d="M383.833 272.167C383.833 271.4 384.6 270.634 385.367 270.634C386.133 270.634 386.9 271.4 386.9 272.167C386.9 272.934 386.133 273.7 385.367 273.7C384.6 273.7 383.833 272.934 383.833 272.167Z" fill="#352E31"/>
<path d="M369.271 248.4C369.271 247.633 370.037 246.866 370.804 246.866C371.571 246.866 372.337 247.633 372.337 248.4C372.337 249.166 371.571 249.933 370.804 249.933C369.271 249.933 369.271 249.166 369.271 248.4Z" fill="#352E31"/>
<path d="M363.903 279.066C363.903 278.3 364.669 277.533 365.436 277.533C366.203 277.533 366.969 278.3 366.969 279.066C366.969 279.833 366.203 280.6 365.436 280.6C364.669 280.6 363.903 279.833 363.903 279.066Z" fill="#352E31"/>
<path d="M398.403 220.033C398.403 219.267 399.169 218.5 399.936 218.5C400.703 218.5 401.469 219.267 401.469 220.033C401.469 220.8 400.703 221.567 399.936 221.567C398.403 221.567 398.403 220.8 398.403 220.033Z" fill="#352E31"/>
<path d="M369.271 248.4C369.271 247.633 370.037 246.866 370.804 246.866C371.571 246.866 372.337 247.633 372.337 248.4C372.337 249.166 371.571 249.933 370.804 249.933C369.271 249.933 369.271 249.166 369.271 248.4Z" fill="#352E31"/>
<path d="M373.104 213.9C373.104 213.133 373.871 212.366 374.637 212.366C375.404 212.366 376.171 213.133 376.171 213.9C376.171 214.666 375.404 215.433 374.637 215.433C373.104 215.433 373.104 214.666 373.104 213.9Z" fill="#352E31"/>
<path d="M343.201 248.4C343.201 247.633 343.968 246.866 344.735 246.866C345.501 246.866 346.268 247.633 346.268 248.4C346.268 249.166 345.501 249.933 344.735 249.933C343.968 249.933 343.201 249.166 343.201 248.4Z" fill="#352E31"/>
<path d="M383.833 272.167C383.833 271.4 384.6 270.634 385.367 270.634C386.133 270.634 386.9 271.4 386.9 272.167C386.9 272.934 386.133 273.7 385.367 273.7C384.6 273.7 383.833 272.934 383.833 272.167Z" fill="#352E31"/>
<path d="M363.903 279.066C363.903 278.3 364.669 277.533 365.436 277.533C366.203 277.533 366.969 278.3 366.969 279.066C366.969 279.833 366.203 280.6 365.436 280.6C364.669 280.6 363.903 279.833 363.903 279.066Z" fill="#352E31"/>
<path d="M343.201 248.4C343.201 247.633 343.968 246.866 344.735 246.866C345.501 246.866 346.268 247.633 346.268 248.4C346.268 249.166 345.501 249.933 344.735 249.933C343.968 249.933 343.201 249.166 343.201 248.4Z" fill="#352E31"/>
<path d="M347.805 281.367C347.805 280.6 348.572 279.833 349.339 279.833C350.105 279.833 350.872 280.6 350.872 281.367C350.872 282.133 350.105 282.9 349.339 282.9C348.572 282.9 347.805 282.133 347.805 281.367Z" fill="#352E31"/>
<path d="M370.036 323.533C370.036 322.767 370.802 322 371.569 322C372.336 322 373.102 322.767 373.102 323.533C373.102 324.3 372.336 325.067 371.569 325.067C370.036 325.067 369.269 324.3 370.036 323.533Z" fill="#352E31"/>
<path d="M363.903 279.066C363.903 278.3 364.669 277.533 365.436 277.533C366.203 277.533 366.969 278.3 366.969 279.066C366.969 279.833 366.203 280.6 365.436 280.6C364.669 280.6 363.903 279.833 363.903 279.066Z" fill="#352E31"/>
<path d="M330.938 284.434C330.938 283.668 331.705 282.901 332.472 282.901C333.238 282.901 334.005 283.668 334.005 284.434C334.005 285.201 333.238 285.968 332.472 285.968C330.938 285.968 330.172 285.201 330.938 284.434Z" fill="#352E31"/>
<path d="M343.201 248.4C343.201 247.633 343.968 246.866 344.735 246.866C345.501 246.866 346.268 247.633 346.268 248.4C346.268 249.166 345.501 249.933 344.735 249.933C343.968 249.933 343.201 249.166 343.201 248.4Z" fill="#352E31"/>
<path d="M308.701 262.967C308.701 262.201 309.468 261.434 310.235 261.434C311.001 261.434 311.768 262.201 311.768 262.967C311.768 263.734 311.001 264.501 310.235 264.501C309.468 264.501 308.701 263.734 308.701 262.967Z" fill="#352E31"/>
<path d="M217.472 187.066C217.472 186.3 218.239 185.533 219.005 185.533C219.772 185.533 220.539 186.3 220.539 187.066C220.539 187.833 219.772 188.6 219.005 188.6C217.472 188.6 217.472 187.833 217.472 187.066Z" fill="#352E31"/>
<path d="M222.069 184.768C222.069 184.001 222.836 183.234 223.603 183.234C224.369 183.234 225.136 184.001 225.136 184.768C225.136 185.534 224.369 186.301 223.603 186.301C222.836 186.301 222.069 185.534 222.069 184.768Z" fill="#352E31"/>
<path d="M189.868 173.268C189.868 172.501 190.635 171.734 191.401 171.734C192.168 171.734 192.935 172.501 192.935 173.268C192.935 174.034 192.168 174.801 191.401 174.801C189.868 174.801 189.868 174.034 189.868 173.268Z" fill="#352E31"/>
<path d="M219.771 191.667C219.771 190.9 220.537 190.134 221.304 190.134C222.071 190.134 222.837 190.9 222.837 191.667C222.837 192.434 222.071 193.2 221.304 193.2C219.771 193.2 219.771 192.434 219.771 191.667Z" fill="#352E31"/>
<path d="M224.368 209.301C224.368 208.534 225.135 207.767 225.901 207.767C226.668 207.767 227.435 208.534 227.435 209.301C227.435 210.067 226.668 210.834 225.901 210.834C225.135 210.834 224.368 210.067 224.368 209.301Z" fill="#352E31"/>
<path d="M211.334 191.667C211.334 190.9 212.101 190.134 212.868 190.134C213.634 190.134 214.401 190.9 214.401 191.667C214.401 192.434 213.634 193.2 212.868 193.2C211.334 193.2 210.568 192.434 211.334 191.667Z" fill="#352E31"/>
<path d="M172.237 222.334C172.237 221.567 173.004 220.8 173.77 220.8C174.537 220.8 175.304 221.567 175.304 222.334C175.304 223.1 174.537 223.867 173.77 223.867C172.237 223.867 171.47 223.1 172.237 222.334Z" fill="#352E31"/>
<path d="M210.569 229.233C210.569 228.466 211.336 227.7 212.103 227.7C212.869 227.7 213.636 228.466 213.636 229.233C213.636 230 212.869 230.766 212.103 230.766C210.569 230.766 210.569 230 210.569 229.233Z" fill="#352E31"/>
<path d="M202.139 214.667C202.139 213.9 202.905 213.134 203.672 213.134C204.439 213.134 205.205 213.9 205.205 214.667C205.205 215.434 204.439 216.2 203.672 216.2C202.139 216.2 202.139 215.434 202.139 214.667Z" fill="#352E31"/>
<path d="M171.472 252.233C171.472 251.466 172.239 250.7 173.005 250.7C173.772 250.7 174.539 251.466 174.539 252.233C174.539 253 173.772 253.766 173.005 253.766C172.239 253.766 171.472 253 171.472 252.233Z" fill="#352E31"/>
<path d="M173.771 243.033C173.771 242.267 174.537 241.5 175.304 241.5C176.071 241.5 176.837 242.267 176.837 243.033C176.837 243.8 176.071 244.567 175.304 244.567C174.537 244.567 173.771 243.8 173.771 243.033Z" fill="#352E31"/>
<path d="M195.236 241.5C195.236 240.734 196.003 239.967 196.769 239.967C197.536 239.967 198.303 240.734 198.303 241.5C198.303 242.267 197.536 243.034 196.769 243.034C195.236 243.034 195.236 242.267 195.236 241.5Z" fill="#352E31"/>
<path d="M138.5 279.066C138.5 278.3 139.267 277.533 140.033 277.533C140.8 277.533 141.567 278.3 141.567 279.066C141.567 279.833 140.8 280.6 140.033 280.6C138.5 280.6 138.5 279.833 138.5 279.066Z" fill="#352E31"/>
<path d="M179.139 272.934C179.139 272.168 179.905 271.401 180.672 271.401C181.439 271.401 182.205 272.168 182.205 272.934C182.205 273.701 181.439 274.468 180.672 274.468C179.905 274.468 179.139 273.701 179.139 272.934Z" fill="#352E31"/>
<path d="M182.972 256.834C182.972 256.067 183.739 255.3 184.505 255.3C185.272 255.3 186.039 256.067 186.039 256.834C186.039 257.6 185.272 258.367 184.505 258.367C183.739 258.367 182.972 257.6 182.972 256.834Z" fill="#352E31"/>
<path d="M117.035 313.566C117.035 312.8 117.801 312.033 118.568 312.033C119.335 312.033 120.101 312.8 120.101 313.566C120.101 314.333 119.335 315.1 118.568 315.1C117.801 315.1 117.035 314.333 117.035 313.566Z" fill="#352E31"/>
<path d="M133.133 318.167C133.133 317.4 133.9 316.634 134.666 316.634C135.433 316.634 136.2 317.4 136.2 318.167C136.2 318.934 135.433 319.7 134.666 319.7C133.133 319.7 132.366 318.934 133.133 318.167Z" fill="#352E31"/>
<path d="M122.403 283.667C122.403 282.9 123.169 282.134 123.936 282.134C124.703 282.134 125.469 282.9 125.469 283.667C125.469 284.434 124.703 285.2 123.936 285.2C123.169 285.2 122.403 284.434 122.403 283.667Z" fill="#352E31"/>
<path d="M79.472 338.101C79.472 337.334 80.2386 336.568 81.0053 336.568C81.772 336.568 82.5386 337.334 82.5386 338.101C82.5386 338.868 81.772 339.634 81.0053 339.634C80.2386 339.634 79.472 338.868 79.472 338.101Z" fill="#352E31"/>
<path d="M100.167 340.4C100.167 339.633 100.933 338.866 101.7 338.866C102.467 338.866 103.233 339.633 103.233 340.4C103.233 341.166 102.467 341.933 101.7 341.933C100.933 341.933 100.167 341.166 100.167 340.4Z" fill="#352E31"/>
<path d="M125.472 324.301C125.472 323.534 126.239 322.767 127.005 322.767C127.772 322.767 128.539 323.534 128.539 324.301C128.539 325.067 127.772 325.834 127.005 325.834C126.239 325.834 125.472 325.067 125.472 324.301Z" fill="#352E31"/>
<path d="M66.4373 322C66.4373 321.234 67.204 320.467 67.9706 320.467C68.7373 320.467 69.504 321.234 69.504 322C69.504 322.767 68.7373 323.534 67.9706 323.534C67.204 323.534 66.4373 322.767 66.4373 322Z" fill="#352E31"/>
<path d="M88.6667 309.733C88.6667 308.966 89.4333 308.2 90.2 308.2C90.9667 308.2 91.7333 308.966 91.7333 309.733C91.7333 310.5 90.9667 311.266 90.2 311.266C88.6667 311.266 88.6667 310.5 88.6667 309.733Z" fill="#352E31"/>
<path d="M83.3053 299C83.3053 298.234 84.072 297.467 84.8386 297.467C85.6053 297.467 86.372 298.234 86.372 299C86.372 299.767 85.6053 300.534 84.8386 300.534C84.072 300.534 83.3053 299.767 83.3053 299Z" fill="#352E31"/>
<path d="M64.1386 368.768C64.1386 368.001 64.9053 367.234 65.672 367.234C66.4386 367.234 67.2053 368.001 67.2053 368.768C67.2053 369.534 66.4386 370.301 65.672 370.301C64.9053 370.301 64.1386 369.534 64.1386 368.768Z" fill="#352E31"/>
<path d="M83.3053 370.301C83.3053 369.534 84.072 368.767 84.8386 368.767C85.6053 368.767 86.372 369.534 86.372 370.301C86.372 371.067 85.6053 371.834 84.8386 371.834C84.072 371.834 83.3053 371.067 83.3053 370.301Z" fill="#352E31"/>
<path d="M58 358.801C58 358.034 58.7667 357.267 59.5333 357.267C60.3 357.267 61.0667 358.034 61.0667 358.801C61.0667 359.567 60.3 360.334 59.5333 360.334C58 360.334 58 359.567 58 358.801Z" fill="#352E31"/>
<path d="M130.069 374.9C130.069 374.133 130.836 373.366 131.603 373.366C132.369 373.366 133.136 374.133 133.136 374.9C133.136 375.666 132.369 376.433 131.603 376.433C130.836 376.433 130.069 375.666 130.069 374.9Z" fill="#352E31"/>
<path d="M150 361.101C150 360.334 150.767 359.568 151.533 359.568C152.3 359.568 153.067 360.334 153.067 361.101C153.067 361.868 152.3 362.634 151.533 362.634C150.767 362.634 150 361.868 150 361.101Z" fill="#352E31"/>
<path d="M98.6386 360.334C98.6386 359.567 99.4053 358.8 100.172 358.8C100.939 358.8 101.705 359.567 101.705 360.334C101.705 361.1 100.939 361.867 100.172 361.867C99.4053 361.867 98.6386 361.1 98.6386 360.334Z" fill="#352E31"/>
<path d="M20.4373 407.1C20.4373 406.333 21.204 406.333 21.9706 406.333C22.7373 406.333 23.504 407.1 23.504 407.867C23.504 408.633 22.7373 409.4 21.9706 409.4C21.204 408.633 20.4373 408.633 20.4373 407.1Z" fill="#352E31"/>
<path d="M38.8333 399.433C38.8333 398.667 39.6 398.667 40.3667 398.667C41.1333 398.667 41.9 399.433 41.9 400.2C41.9 400.967 41.1333 401.733 40.3667 401.733C39.6 400.967 38.8333 400.2 38.8333 399.433Z" fill="#352E31"/>
<path d="M17.3691 401.733C17.3691 400.966 18.1358 400.2 18.9025 400.2C19.6691 400.2 20.4358 400.966 20.4358 401.733C20.4358 402.5 19.6691 403.266 18.9025 403.266C17.3691 403.266 16.6025 402.5 17.3691 401.733Z" fill="#352E31"/>
<path d="M94.0346 399.434C94.0346 398.668 94.8013 397.901 95.568 397.901C96.3346 397.901 97.1013 398.668 97.1013 399.434C97.1013 400.201 96.3346 400.968 95.568 400.968C94.8013 400.968 94.0346 400.201 94.0346 399.434Z" fill="#352E31"/>
<path d="M101.701 396.367C101.701 395.6 102.468 394.833 103.235 394.833C104.001 394.833 104.768 395.6 104.768 396.367C104.768 397.133 104.001 397.9 103.235 397.9C102.468 397.9 101.701 397.133 101.701 396.367Z" fill="#352E31"/>
<path d="M80.236 397.9C80.236 397.133 81.0026 396.366 81.7693 396.366C82.536 396.366 83.3026 397.133 83.3026 397.9C83.3026 398.666 82.536 399.433 81.7693 399.433C81.0026 399.433 80.236 398.666 80.236 397.9Z" fill="#352E31"/>
<path d="M155.368 226.934C155.368 226.168 156.135 225.401 156.901 225.401C157.668 225.401 158.435 226.168 158.435 226.934C158.435 227.701 157.668 228.468 156.901 228.468C156.135 228.468 155.368 228.468 155.368 226.934Z" fill="#352E31"/>
<path d="M163.035 249.167C163.035 248.4 163.801 247.634 164.568 247.634C165.335 247.634 166.101 248.4 166.101 249.167C166.101 249.934 165.335 250.7 164.568 250.7C163.801 250.7 163.035 249.934 163.035 249.167Z" fill="#352E31"/>
<path d="M149.236 262.967C149.236 262.201 150.003 261.434 150.769 261.434C151.536 261.434 152.303 262.201 152.303 262.967C152.303 263.734 151.536 264.501 150.769 264.501C149.236 264.501 149.236 263.734 149.236 262.967Z" fill="#352E31"/>
<g opacity="0.5">
<path opacity="0.5" d="M370.804 323.533L365.437 279.066L399.937 220.033L370.804 323.533Z" fill="#F7BB33"/>
<path opacity="0.5" d="M370.803 323.534L310.236 262.967L349.336 282.134L370.803 323.534Z" fill="#F7BB33"/>
<path opacity="0.5" d="M189.868 387.934L235.868 315.1L310.235 262.967L189.868 387.934Z" fill="#F7BB33"/>
<path opacity="0.5" d="M226.667 217.734L246.6 200.101L228.967 232.301L226.667 217.734Z" fill="#F7BB33"/>
<path opacity="0.5" d="M140.035 279.067L183.735 256.833L180.668 272.933L140.035 279.067Z" fill="#F7BB33"/>
<path opacity="0.5" d="M81 338.099L127 325.066L101.7 340.399L81 338.099Z" fill="#F7BB33"/>
<path opacity="0.5" d="M59.5347 358.8L84.8347 370.3L65.668 368.767L59.5347 358.8Z" fill="#F7BB33"/>
<path opacity="0.5" d="M206.736 358.033L168.403 389.466L172.236 405.566L206.736 358.033Z" fill="#F7BB33"/>
<path opacity="0.5" d="M186.035 138.767L238.168 175.567L219.001 170.201L186.035 138.767Z" fill="#F7BB33"/>
<path opacity="0.5" d="M238.167 175.566L257.333 188.599L246.6 200.099L238.167 175.566Z" fill="#F7BB33"/>
<path opacity="0.5" d="M370.801 323.534L331.701 285.201L385.368 272.934L370.801 323.534Z" fill="#F7BB33"/>
<path opacity="0.5" d="M399.937 220.033L401.471 185.533L441.337 69L399.937 220.033Z" fill="#F7BB33"/>
</g>
</svg>
