<svg width="13" height="36" viewBox="0 0 13 36" fill="none" xmlns="http://www.w3.org/2000/svg">
<path d="M4.64286 32.3036C4.64286 32.3229 4.64528 32.3713 4.65011 32.4487C4.65495 32.526 4.65495 32.5913 4.65011 32.6445C4.65011 32.6929 4.64286 32.7485 4.62835 32.8114C4.61868 32.8743 4.59449 32.9226 4.5558 32.9565C4.52195 32.9855 4.47359 33 4.41071 33H2.08929C1.51376 33 1.02046 32.7969 0.609375 32.3906C0.203125 31.9795 0 31.4862 0 30.9107V25.8036C0 25.2281 0.203125 24.7372 0.609375 24.3309C1.02046 23.9198 1.51376 23.7143 2.08929 23.7143H4.41071C4.47359 23.7143 4.52679 23.7385 4.57031 23.7868C4.61868 23.8304 4.64286 23.8836 4.64286 23.9464C4.64286 23.9658 4.64528 24.0141 4.65011 24.0915C4.65495 24.1689 4.65495 24.2342 4.65011 24.2874C4.65011 24.3358 4.64286 24.3914 4.62835 24.4542C4.61868 24.5171 4.59449 24.5655 4.5558 24.5993C4.52195 24.6283 4.47359 24.6429 4.41071 24.6429H2.08929C1.77009 24.6429 1.49684 24.7565 1.26953 24.9838C1.04222 25.2111 0.928571 25.4844 0.928571 25.8036V30.9107C0.928571 31.2299 1.04222 31.5032 1.26953 31.7305C1.49684 31.9578 1.77009 32.0714 2.08929 32.0714H4.17857C4.18341 32.0714 4.21001 32.0714 4.25837 32.0714C4.30673 32.0714 4.33817 32.0714 4.35268 32.0714C4.36719 32.0714 4.39379 32.0738 4.43248 32.0787C4.476 32.0835 4.50502 32.0908 4.51953 32.1004C4.53404 32.1101 4.55339 32.1246 4.57757 32.144C4.60175 32.1585 4.61868 32.1802 4.62835 32.2093C4.63802 32.2334 4.64286 32.2649 4.64286 32.3036ZM11.2372 28.0307C11.3291 28.1226 11.375 28.2314 11.375 28.3571C11.375 28.4829 11.3291 28.5917 11.2372 28.6836L7.29074 32.63C7.19885 32.7219 7.09003 32.7679 6.96429 32.7679C6.83854 32.7679 6.72972 32.7219 6.63784 32.63C6.54595 32.5381 6.5 32.4293 6.5 32.3036V30.2143H3.25C3.12426 30.2143 3.01544 30.1683 2.92355 30.0765C2.83166 29.9846 2.78571 29.8757 2.78571 29.75V26.9643C2.78571 26.8385 2.83166 26.7297 2.92355 26.6378C3.01544 26.5459 3.12426 26.5 3.25 26.5H6.5V24.4107C6.5 24.285 6.54595 24.1762 6.63784 24.0843C6.72972 23.9924 6.83854 23.9464 6.96429 23.9464C7.09003 23.9464 7.19885 23.9924 7.29074 24.0843L11.2372 28.0307Z" fill="#535356"/>
<path d="M8.32031 16.5703C8.3724 16.6224 8.39844 16.6823 8.39844 16.75C8.39844 16.8177 8.3724 16.8776 8.32031 16.9297L4.67969 20.5703C4.6276 20.6224 4.56771 20.6484 4.5 20.6484C4.43229 20.6484 4.3724 20.6224 4.32031 20.5703L0.679688 16.9297C0.627604 16.8776 0.601563 16.8177 0.601563 16.75C0.601563 16.6823 0.627604 16.6224 0.679688 16.5703L1.07031 16.1797C1.1224 16.1276 1.18229 16.1016 1.25 16.1016C1.31771 16.1016 1.3776 16.1276 1.42969 16.1797L4.5 19.25L7.57031 16.1797C7.6224 16.1276 7.68229 16.1016 7.75 16.1016C7.81771 16.1016 7.8776 16.1276 7.92969 16.1797L8.32031 16.5703Z" fill="#352E31"/>
<path d="M9.28571 11.0061C9.28571 11.5333 9.13337 11.9855 8.82868 12.3627C8.52883 12.74 8.16611 12.9286 7.74051 12.9286H1.5452C1.11961 12.9286 0.754464 12.74 0.449777 12.3627C0.149926 11.9855 0 11.5333 0 11.0061C0 10.5951 0.0193452 10.2081 0.0580357 9.84542C0.101563 9.47786 0.178943 9.1103 0.290179 8.74275C0.401414 8.37035 0.541667 8.05357 0.710938 7.79241C0.885045 7.52641 1.11235 7.3112 1.39286 7.14676C1.6782 6.97749 2.00465 6.89286 2.37221 6.89286C3.00577 7.5119 3.76265 7.82143 4.64286 7.82143C5.52307 7.82143 6.27995 7.5119 6.91351 6.89286C7.28106 6.89286 7.6051 6.97749 7.8856 7.14676C8.17095 7.3112 8.39825 7.52641 8.56752 7.79241C8.74163 8.05357 8.8843 8.37035 8.99554 8.74275C9.10677 9.1103 9.18173 9.47786 9.22042 9.84542C9.26395 10.2081 9.28571 10.5951 9.28571 11.0061ZM6.60882 2.60547C7.15532 3.14714 7.42857 3.80246 7.42857 4.57143C7.42857 5.3404 7.15532 5.99814 6.60882 6.54464C6.06715 7.08631 5.41183 7.35714 4.64286 7.35714C3.87388 7.35714 3.21615 7.08631 2.66964 6.54464C2.12798 5.99814 1.85714 5.3404 1.85714 4.57143C1.85714 3.80246 2.12798 3.14714 2.66964 2.60547C3.21615 2.05897 3.87388 1.78571 4.64286 1.78571C5.41183 1.78571 6.06715 2.05897 6.60882 2.60547Z" fill="#535356"/>
</svg>
