<svg width="175" height="22" viewBox="0 0 175 22" fill="none" xmlns="http://www.w3.org/2000/svg">
<path d="M5.30007 13.5208L13.8168 5.1656C14.256 4.73497 14.848 4.49646 15.4629 4.50252C16.0777 4.50858 16.665 4.75871 17.0956 5.19791L13.2306 1.25303C12.8 0.813955 12.2127 0.563911 11.5979 0.557852C10.9831 0.551793 10.3911 0.790215 9.9519 1.22072L1.43488 9.57593C0.996058 10.0068 0.746158 10.5944 0.740103 11.2095C0.734047 11.8247 0.972331 12.4171 1.40259 12.8565L5.26876 16.8024C4.83835 16.363 4.59994 15.7706 4.60595 15.1555C4.61196 14.5403 4.8619 13.9526 5.30081 13.5218" fill="#FCBA1E"/>
<path d="M8.54813 16.8342L17.0639 8.47904C17.5028 8.04819 17.7528 7.46056 17.7588 6.84537C17.7648 6.23018 17.5264 5.63778 17.096 5.19843L20.9619 9.14256C21.3922 9.58194 21.6306 10.1743 21.6246 10.7895C21.6186 11.4047 21.3687 11.9923 20.9298 12.4232L12.4138 20.7791C11.9747 21.2097 11.3826 21.4481 10.7678 21.4421C10.153 21.4361 9.56576 21.1861 9.1351 20.7471L5.26843 16.8022C5.69903 17.2413 6.28632 17.4914 6.90115 17.4974C7.51599 17.5035 8.10805 17.2649 8.54715 16.8342" fill="#DF9026"/>
<path d="M20.9613 9.14208L17.0954 5.1972C17.5257 5.63659 17.7641 6.22901 17.7581 6.8442C17.752 7.4594 17.502 8.047 17.0631 8.47782L16.8267 8.70968L19.07 10.9977C19.5002 11.4372 19.7385 12.0296 19.7325 12.6447C19.7264 13.2599 19.4765 13.8475 19.0377 14.2783L20.9285 12.4237C21.3675 11.9929 21.6174 11.4053 21.6235 10.7901C21.6295 10.1749 21.3912 9.58245 20.9608 9.14307" fill="#AD722A"/>
<path d="M11.3371 3.10979L13.5804 5.39783L13.8168 5.16572C14.2559 4.73512 14.848 4.49661 15.4628 4.50262C16.0776 4.50864 16.6649 4.75868 17.0955 5.19778L13.2296 1.25291C12.7989 0.813863 12.2117 0.563863 11.5969 0.55785C10.9821 0.551837 10.3901 0.790303 9.95089 1.22084L9.71448 1.45295L11.3371 3.10979Z" fill="#FFC841"/>
<path d="M25.1368 13.7307V8.67861C25.1368 6.11763 26.3734 4.53448 30.7802 4.53448C35.1869 4.53448 36.4235 6.07107 36.4235 8.63206V13.6609C36.4235 16.2219 35.1869 17.805 30.7802 17.805C26.3734 17.805 25.1368 16.2917 25.1368 13.7307ZM34.2651 13.4281V8.88815C34.2651 6.93249 33.5231 6.28061 30.7802 6.28061C28.0147 6.28061 27.2728 6.97905 27.2728 8.91143V13.4746C27.2728 15.4303 28.0147 16.0822 30.7802 16.0822C33.5231 16.0822 34.2651 15.3837 34.2651 13.4281Z" fill="#FFC221"/>
<path d="M38.0874 15.8958L39.0092 15.8725V6.55984L38.0874 6.49V4.81372H44.068C47.1707 4.81372 48.3398 5.58201 48.3398 7.3747V8.888C48.3398 10.3082 47.4855 11.3093 45.6868 11.449C47.1932 11.5887 48.2499 11.8448 48.3848 13.3115L48.6096 15.8492L49.5989 15.8958V17.5488H46.721C46.6086 17.4324 46.5187 17.316 46.4962 16.9435L46.2714 13.9168C46.1814 12.5898 45.2821 12.2406 43.1012 12.2406H41.1451V15.8259L42.067 15.8492V17.5255H38.0874V15.8958ZM43.6408 10.5643C45.6643 10.5643 46.2264 10.1219 46.2264 9.00441V7.98002C46.2264 6.95563 45.8442 6.51328 43.6408 6.51328H41.1676V10.541H43.6408V10.5643Z" fill="#FFC221"/>
<path d="M50.8354 13.7307V8.67861C50.8354 6.11763 52.072 4.53448 56.4788 4.53448C60.8855 4.53448 62.1221 6.07107 62.1221 8.63206V13.6609C62.1221 16.2219 60.8855 17.805 56.4788 17.805C52.072 17.805 50.8354 16.2917 50.8354 13.7307ZM59.9637 13.4281V8.88815C59.9637 6.93249 59.2218 6.28061 56.4788 6.28061C53.7133 6.28061 52.9714 6.97905 52.9714 8.91143V13.4746C52.9714 15.4303 53.7133 16.0822 56.4788 16.0822C59.2218 16.0822 59.9637 15.3837 59.9637 13.4281Z" fill="#FFC221"/>
<path d="M68.8014 16.1095L69.8013 16.0872V6.33481L68.8014 6.31249V5.19666H74.1123C77.201 5.19666 78.2676 5.86616 78.2676 7.94161V9.48146C78.2676 11.5569 76.8899 12.3157 74.1123 12.3157H71.268V16.0872L72.2901 16.1095V17.2254H68.8014V16.1095ZM73.8456 11.1775C76.2011 11.1775 76.8233 10.5973 76.8233 9.30293V8.07551C76.8233 6.78114 76.29 6.33481 73.8456 6.33481H71.268V11.1775H73.8456Z" fill="#9DA4A7"/>
<path d="M79.1046 14.9052V14.1018C79.1046 12.4281 80.1046 11.8925 82.5267 11.3122L85.6599 10.5311V9.52689C85.6599 8.67885 85.2377 8.18788 83.1267 8.18788C81.0156 8.18788 80.549 8.65653 80.549 9.45994C80.549 9.63847 80.6379 10.1518 80.6379 10.1518H79.6379C79.6379 10.1518 79.3046 9.817 79.3046 9.1475C79.3046 7.85313 80.1712 7.09436 83.26 7.09436C86.3487 7.09436 87.0598 7.85313 87.0598 9.4153V16.088L88.0153 16.1103V17.1592H86.0821C85.9265 17.1592 85.8154 17.0476 85.8154 16.8691L85.7266 15.7756H85.7043C85.6154 16.4004 85.0155 17.427 82.5934 17.427C80.2601 17.4716 79.1046 16.4897 79.1046 14.9052ZM85.6599 14.7267V11.5354L82.9933 12.2272C81.349 12.6735 80.5046 12.986 80.5046 14.1018V14.7936C80.5046 15.8648 81.2379 16.4228 82.9933 16.4228C85.0155 16.4004 85.6599 15.4631 85.6599 14.7267Z" fill="#9DA4A7"/>
<path d="M88.9946 16.1103L89.9946 16.088V8.50031L88.9946 8.478V7.36216H90.9946C91.1723 7.36216 91.2612 7.47374 91.2834 7.65228L91.3501 9.12518H91.3723C91.4834 7.83081 92.3723 7.09436 93.5056 7.09436C93.9278 7.09436 94.1944 7.18363 94.35 7.25058V8.58958C94.1944 8.478 93.8389 8.38873 93.3944 8.38873C92.2389 8.38873 91.3723 9.08055 91.3501 10.8659V16.088L92.4167 16.1103V17.1592H88.9724V16.1103H88.9946Z" fill="#9DA4A7"/>
<path d="M120.656 16.1103L121.656 16.088V8.50031L120.656 8.478V7.36216H122.656C122.834 7.36216 122.922 7.47374 122.945 7.65228L123.011 9.12518H123.034C123.145 7.83081 124.034 7.09436 125.167 7.09436C125.589 7.09436 125.856 7.18363 126.011 7.25058V8.58958C125.856 8.478 125.5 8.38873 125.056 8.38873C123.9 8.38873 123.034 9.08055 123.011 10.8659V16.088L124.078 16.1103V17.1592H120.634V16.1103H120.656Z" fill="#9DA4A7"/>
<path d="M96.4629 15.1053V8.36563H94.9963V7.31674L96.4629 7.24979V5.53141L97.6851 5.19666H97.8629V7.27211H100.241V8.38794H97.8629V14.9937C97.8629 15.864 98.2851 16.2211 99.0628 16.2211C99.6628 16.2211 100.063 16.0203 100.307 15.8417L100.396 16.8237C100.152 17.0468 99.5739 17.2923 98.774 17.2923C97.374 17.2923 96.4629 16.7344 96.4629 15.1053Z" fill="#9DA4A7"/>
<path d="M109.712 8.85995C109.839 9.58321 109.801 9.62035 109.801 10.4221V16.0682L110.823 16.0906V17.1394H107.379V16.0906L108.401 16.0682V9.90883C108.401 8.6591 107.801 8.19045 106.112 8.19045C104.424 8.19045 103.357 8.77068 103.357 10.4444V16.0906L104.379 16.1129V17.1618H101.024V16.1129L101.957 16.0906V8.50288L101.024 8.48056V7.36473H103.024C103.179 7.36473 103.29 7.47631 103.29 7.65484L103.335 8.83763H103.357C103.646 7.65484 104.512 7.09693 106.557 7.09693C108.512 7.05229 109.49 7.5879 109.712 8.85995Z" fill="#9DA4A7"/>
<path d="M115.781 7.51611C112.631 7.51611 111.613 8.78412 111.613 10.7314V14.0146C111.613 16.1884 112.655 17.2526 115.874 17.2526C118.676 17.2526 119.787 16.211 119.787 14.8524V14.6939H118.513V14.7618C118.513 15.5091 117.865 16.211 115.897 16.211C113.674 16.211 112.956 15.4638 112.956 13.9467V13.0184H119.509C119.671 13.0184 119.787 12.9051 119.787 12.7466V10.7088C119.787 8.60298 118.907 7.51611 115.781 7.51611ZM118.49 12.1579H112.979V10.7314C112.979 9.44076 113.627 8.51241 115.827 8.51241C118.027 8.51241 118.513 9.30491 118.513 10.7314V12.1579H118.49Z" fill="#9DA4A7"/>
<path d="M129.325 16.1095L130.325 16.0872V6.33481L129.325 6.31249V5.19666H134.636C137.724 5.19666 138.791 5.86616 138.791 7.94161V9.48146C138.791 11.5569 137.413 12.3157 134.636 12.3157H131.791V16.0872L132.814 16.1095V17.2254H129.325V16.1095ZM134.369 11.1775C136.725 11.1775 137.347 10.5973 137.347 9.30293V8.07551C137.347 6.78114 136.813 6.33481 134.369 6.33481H131.791V11.1775H134.369Z" fill="#9DA4A7"/>
<path d="M170.971 16.1141L171.927 16.0918V5.49136L170.838 5.46905V4.35321H173.038C173.193 4.35321 173.304 4.48711 173.304 4.66564V16.1141L174.26 16.1364V17.1853H170.949V16.1141H170.971Z" fill="#9DA4A7"/>
<path d="M161.138 14.9052V14.1018C161.138 12.4281 162.138 11.8925 164.56 11.3122L167.694 10.5311V9.52689C167.694 8.67885 167.271 8.18788 165.16 8.18788C163.049 8.18788 162.583 8.65653 162.583 9.45994C162.583 9.63847 162.672 10.1518 162.672 10.1518H161.672C161.672 10.1518 161.338 9.817 161.338 9.1475C161.338 7.85313 162.205 7.09436 165.294 7.09436C168.382 7.09436 169.094 7.85313 169.094 9.4153V16.088L170.049 16.1103V17.1592H168.116C167.96 17.1592 167.849 17.0476 167.849 16.8691L167.76 15.7756H167.738C167.649 16.4004 167.049 17.427 164.627 17.427C162.294 17.4716 161.138 16.4897 161.138 14.9052ZM167.694 14.7267V11.5354L165.027 12.2272C163.383 12.6735 162.538 12.986 162.538 14.1018V14.7936C162.538 15.8648 163.272 16.4228 165.027 16.4228C167.049 16.4004 167.694 15.4631 167.694 14.7267Z" fill="#9DA4A7"/>
<path d="M156.429 15.1053V8.36563H154.962V7.31674L156.429 7.24979V5.53141L157.651 5.19666H157.829V7.27211H160.206V8.38794H157.829V14.9937C157.829 15.864 158.251 16.2211 159.029 16.2211C159.629 16.2211 160.029 16.0203 160.273 15.8417L160.362 16.8237C160.117 17.0468 159.54 17.2923 158.74 17.2923C157.34 17.2923 156.429 16.7344 156.429 15.1053Z" fill="#9DA4A7"/>
<path d="M139.358 13.9902V10.5088C139.358 8.45568 140.403 7.09436 143.758 7.09436C147.091 7.09436 148.136 8.2102 148.136 10.5088V13.9902C148.136 16.0434 147.091 17.427 143.758 17.427C140.381 17.427 139.358 16.3112 139.358 13.9902ZM146.714 13.8787V10.6427C146.714 8.99128 146.069 8.23251 143.736 8.23251C141.425 8.23251 140.736 9.21445 140.736 10.6427V13.8787C140.736 15.5078 141.425 16.2889 143.736 16.2889C146.069 16.2889 146.714 15.2846 146.714 13.8787Z" fill="#9DA4A7"/>
<path d="M148.869 16.1103L149.869 16.088V8.50031L148.869 8.478V7.36216H150.869C151.047 7.36216 151.136 7.47374 151.158 7.65228L151.225 9.12518H151.247C151.358 7.83081 152.247 7.09436 153.38 7.09436C153.803 7.09436 154.069 7.18363 154.225 7.25058V8.58958C154.069 8.478 153.714 8.38873 153.269 8.38873C152.114 8.38873 151.247 9.08055 151.225 10.8659V16.088L152.291 16.1103V17.1592H148.847V16.1103H148.869Z" fill="#9DA4A7"/>
</svg>
